HIERARCHY
ROOT SpineBase
{
  OFFSET 0.000000 0.000000 0.000000
  CHANNELS 6 Xposition Yposition Zposition Zrotation Xrotation Yrotation
  JOINT SpineMid
  {
    OFFSET 0.000000 27.999290 0.000000
    CHANNELS 3 Zrotation Xrotation Yrotation
    JOINT SpineShoulder
    {
      OFFSET 0.035352 20.862931 -0.696741
      CHANNELS 3 Zrotation Xrotation Yrotation
      JOINT Neck
      {
        OFFSET 0.037990 6.931452 -0.524240
        CHANNELS 3 Zrotation Xrotation Yrotation
        JOINT Head
        {
          OFFSET -4.084850 13.077617 -1.321439
          CHANNELS 3 Zrotation Xrotation Yrotation
          End Site
          {
            OFFSET 0 0 0
          }
        }
      }
      JOINT ShoulderLeft
      {
        OFFSET -16.472878 -4.031919 5.302843
        CHANNELS 3 Zrotation Xrotation Yrotation
        JOINT ElbowLeft
        {
          OFFSET -2.198088 -25.963125 2.498747
          CHANNELS 3 Zrotation Xrotation Yrotation
          JOINT WristLeft
          {
            OFFSET 2.326172 -21.063172 -6.742796
            CHANNELS 3 Zrotation Xrotation Yrotation
            JOINT HandLeft
            {
              OFFSET 0.368136 -3.901413 -0.019041
              CHANNELS 3 Zrotation Xrotation Yrotation
              JOINT HandTipLeft
              {
                OFFSET 0.759767 -6.008992 -0.439861
                CHANNELS 3 Zrotation Xrotation Yrotation
                End Site
                {
                  OFFSET 0 0 0
                }
              }
              JOINT ThumbLeft
              {
                OFFSET 4.008183 1.209433 -3.617204
                CHANNELS 3 Zrotation Xrotation Yrotation
                End Site
                {
                  OFFSET 0 0 0
                }
              }
            }
          }
        }
      }
      JOINT ShoulderRight
      {
        OFFSET 14.370907 -2.160898 -6.520072
        CHANNELS 3 Zrotation Xrotation Yrotation
        JOINT ElbowRight
        {
          OFFSET 7.729995 -24.837769 1.292754
          CHANNELS 3 Zrotation Xrotation Yrotation
          JOINT WristRight
          {
            OFFSET 0.296829 -22.110932 -4.093234
            CHANNELS 3 Zrotation Xrotation Yrotation
            JOINT HandRight
            {
              OFFSET -1.221694 -6.561554 -1.480166
              CHANNELS 3 Zrotation Xrotation Yrotation
              JOINT HandTipRight
              {
                OFFSET 0.087508 -7.976303 -1.556541
                CHANNELS 3 Zrotation Xrotation Yrotation
                End Site
                {
                  OFFSET 0 0 0
                }
              }
              JOINT ThumbRight
              {
                OFFSET -3.575881 0.587499 -2.204534
                CHANNELS 3 Zrotation Xrotation Yrotation
                End Site
                {
                  OFFSET 0 0 0
                }
              }
            }
          }
        }
      }
    }
  }
  JOINT HipLeft
  {
    OFFSET -6.215518 0.149441 -1.288687
    CHANNELS 3 Zrotation Xrotation Yrotation
    JOINT KneeLeft
    {
      OFFSET 4.606057 -34.424304 5.362390
      CHANNELS 3 Zrotation Xrotation Yrotation
      JOINT AnkleLeft
      {
        OFFSET 4.516287 -30.013488 2.538876
        CHANNELS 3 Zrotation Xrotation Yrotation
        JOINT FootLeft
        {
          OFFSET 6.892157 -4.562675 -7.503573
          CHANNELS 3 Zrotation Xrotation Yrotation
          End Site
          {
            OFFSET 0 0 0
          }
        }
      }
    }
  }
  JOINT HipRight
  {
    OFFSET 6.868026 1.746294 -4.957672
    CHANNELS 3 Zrotation Xrotation Yrotation
    JOINT KneeRight
    {
      OFFSET 6.482811 -34.227085 1.661130
      CHANNELS 3 Zrotation Xrotation Yrotation
      JOINT AnkleRight
      {
        OFFSET 3.306966 -32.263117 4.798034
        CHANNELS 3 Zrotation Xrotation Yrotation
        JOINT FootRight
        {
          OFFSET -3.793516 -2.932015 -11.734101
          CHANNELS 3 Zrotation Xrotation Yrotation
          End Site
          {
            OFFSET 0 0 0
          }
        }
      }
    }
  }
}
MOTION
Frames: 9
Frame Time: 0.033333
-33.476481 67.282779 340.801806 1.696832 -8.263758 29.708390 0.135659 0.540317 -29.519245 -0.238549 0.737298 0.079383 -12.107897 8.632527 0.868533 0.000000 0.000000 0.000000 -22.481429 -19.147502 -2.156003 23.229346 -9.372598 -11.401222 -27.735730 19.654075 16.393347 16.943038 31.614164 3.036630 0.000000 0.000000 0.000000 0.000000 0.000000 0.000000 -84.485788 56.970023 81.667852 -4.366411 11.597529 -16.706264 4.837284 1.061677 -11.256324 0.093671 9.441101 20.421944 0.000000 0.000000 0.000000 0.000000 0.000000 0.000000 0.221694 9.075159 -29.851958 1.208879 3.430461 0.841342 -14.022854 -9.433851 19.221708 0.000000 0.000000 0.000000 9.002667 7.226581 -29.865385 -5.889818 -2.412162 -0.874767 9.050594 -25.784028 15.442759 0.000000 0.000000 0.000000
-33.476631 67.065838 340.855859 1.340586 -8.049882 29.075000 0.058424 0.491612 -28.922043 -0.229771 0.630053 0.066109 -10.699400 8.610620 0.831774 0.000000 0.000000 0.000000 -22.097806 -19.288621 -2.172692 23.217009 -9.257369 -11.433453 -28.317225 25.863571 18.144837 16.867076 51.678212 6.718999 0.000000 0.000000 0.000000 0.000000 0.000000 0.000000 -83.397877 57.594870 81.619359 -5.240630 11.375814 -17.560542 6.462388 1.047937 -10.292711 -2.332872 7.188630 17.781155 0.000000 0.000000 0.000000 0.000000 0.000000 0.000000 0.446624 8.707901 -29.254447 1.100408 3.379980 0.818118 -14.640392 -8.141194 23.172927 0.000000 0.000000 0.000000 9.199226 7.238271 -29.204752 -5.821565 -2.682576 -0.935316 9.770006 -27.036598 16.331510 0.000000 0.000000 0.000000
-33.401844 67.194427 340.854269 1.099397 -7.895378 30.742174 -0.090331 0.441332 -30.609114 -0.241427 0.489710 0.054339 -9.253489 8.171501 0.593610 0.000000 0.000000 0.000000 -21.709515 -19.707108 -2.177467 23.167868 -8.753966 -11.589101 -30.283929 39.373065 22.538286 16.966357 48.082173 7.180927 0.000000 0.000000 0.000000 0.000000 0.000000 0.000000 -82.627769 58.207297 81.884384 -6.445969 11.682400 -18.435863 8.702452 0.567918 -9.149427 -4.442248 6.547592 16.216509 0.000000 0.000000 0.000000 0.000000 0.000000 0.000000 1.063864 9.003887 -30.926499 1.094880 2.722477 0.735245 -17.688707 -9.816795 28.497571 0.000000 0.000000 0.000000 8.913528 6.476853 -30.883344 -5.410522 -2.179205 -0.784855 9.552557 -26.661296 16.175783 0.000000 0.000000 0.000000
-33.269634 67.598581 340.813587 0.952049 -7.797565 33.813975 -0.217408 0.559768 -33.689627 -0.259971 0.384894 0.041661 -7.827666 7.437141 0.277532 0.000000 0.000000 0.000000 -21.349604 -20.511754 -2.255420 23.097550 -7.984271 -11.828456 -47.212180 65.723323 43.315484 12.432048 22.432658 7.768561 0.000000 0.000000 0.000000 0.000000 0.000000 0.000000 -80.419002 58.884759 80.628404 -8.144366 13.371562 -18.909287 11.716769 -0.510967 -7.766367 -5.411757 6.385457 15.438022 0.000000 0.000000 0.000000 0.000000 0.000000 0.000000 1.862309 9.557665 -34.004652 1.238755 1.890189 0.651449 -18.120688 -10.374292 28.951125 0.000000 0.000000 0.000000 8.150791 5.291613 -34.014551 -4.744186 -1.110580 -0.490357 8.966558 -25.634596 15.181855 0.000000 0.000000 0.000000
-33.128221 67.974861 340.703736 0.791010 -7.662322 36.011611 -0.307937 0.619807 -35.899968 -0.277609 0.326366 0.030224 -6.735394 6.262443 -0.171456 0.000000 0.000000 0.000000 -21.040331 -21.517399 -2.366231 23.007090 -7.066038 -12.111344 -84.848744 76.662745 83.332468 8.914433 5.509521 6.464204 0.000000 0.000000 0.000000 0.000000 0.000000 0.000000 -78.420096 59.745270 79.779456 -9.585140 14.685261 -19.580357 14.104540 -2.095723 -6.766122 -8.414221 5.556599 13.273673 0.000000 0.000000 0.000000 0.000000 0.000000 0.000000 2.339479 9.889836 -36.223380 1.283907 1.153249 0.574278 -17.055719 -10.621360 26.052957 0.000000 0.000000 0.000000 7.414223 4.330544 -36.280256 -4.213752 -0.192464 -0.249851 8.633219 -25.018265 13.543135 0.000000 0.000000 0.000000
-33.010887 68.187130 340.605781 0.644778 -7.468762 37.400443 -0.355325 0.600430 -37.303794 -0.257830 0.295724 0.022680 -6.476860 4.992858 -0.622579 0.000000 0.000000 0.000000 -20.875460 -22.564907 -2.496819 22.580011 -9.471646 -12.863073 -122.742213 73.933938 121.322961 10.593039 12.988610 8.955081 0.000000 0.000000 0.000000 0.000000 0.000000 0.000000 -76.273460 60.927269 79.009777 -10.676785 15.369951 -20.514262 14.803722 -3.747233 -6.628675 -8.839475 6.326941 13.166184 0.000000 0.000000 0.000000 0.000000 0.000000 0.000000 2.601038 10.100801 -37.626567 1.226013 0.395473 0.475469 -14.686344 -10.754582 19.901394 0.000000 0.000000 0.000000 6.541110 3.512691 -37.749307 -3.688959 0.699850 -0.024156 3.746255 -14.873198 11.091087 0.000000 0.000000 0.000000
-32.935725 68.303931 340.513996 0.460552 -7.297449 38.105006 -0.359103 0.598249 -38.027793 -0.276115 0.284421 0.014121 -6.562173 3.600188 -1.108936 0.000000 0.000000 0.000000 -20.689055 -23.514044 -2.633575 22.548827 -7.930533 -12.966191 -119.239008 74.683427 117.885772 8.144919 8.686533 7.364135 0.000000 0.000000 0.000000 0.000000 0.000000 0.000000 -75.237002 61.525421 78.827260 -10.586787 14.990890 -20.986533 15.162826 -5.144924 -6.611451 -11.466723 6.912953 12.046557 0.000000 0.000000 0.000000 0.000000 0.000000 0.000000 2.763929 10.202224 -38.345542 1.039599 -0.337515 0.354660 -10.528690 -10.415865 10.674431 0.000000 0.000000 0.000000 6.111234 2.882272 -38.513861 -3.479852 1.245617 0.105500 1.534547 -9.652166 10.063901 0.000000 0.000000 0.000000
-32.847787 68.442138 340.394237 0.305062 -7.123547 38.672440 -0.354469 0.590971 -38.611883 -0.268228 0.274942 0.007324 -6.998607 2.188481 -1.617683 0.000000 0.000000 0.000000 -20.572978 -24.291645 -2.756656 22.871247 -3.225529 -12.546692 -76.399318 76.000159 74.659941 6.645016 -10.310288 3.589165 0.000000 0.000000 0.000000 0.000000 0.000000 0.000000 -73.679969 62.090623 78.001653 -10.443478 14.694281 -21.254505 14.425984 -6.047753 -7.091623 -13.607200 7.890047 11.545974 0.000000 0.000000 0.000000 0.000000 0.000000 0.000000 2.755521 10.318699 -38.930306 1.147313 -0.899559 0.295686 -6.313076 -11.318439 -0.604267 0.000000 0.000000 0.000000 5.677041 2.318838 -39.140678 -3.285880 1.747640 0.223030 -0.156761 -5.326381 9.195902 0.000000 0.000000 0.000000
-32.747703 68.518070 340.298347 0.161978 -6.966352 39.071990 -0.330602 0.536503 -39.027749 -0.230555 0.245995 0.003476 -7.632780 0.938721 -2.101411 0.000000 0.000000 0.000000 -20.572107 -24.628906 -2.828121 23.497145 3.123556 -11.855239 -33.493579 63.288474 30.377306 3.893132 -21.159052 -0.356831 0.000000 0.000000 0.000000 0.000000 0.000000 0.000000 -71.995661 62.326073 76.593941 -9.943456 14.400637 -21.006505 12.312428 -5.719388 -8.145864 -13.037180 8.969847 12.463232 0.000000 0.000000 0.000000 0.000000 0.000000 0.000000 2.755554 10.499465 -39.341278 1.282361 -1.485377 0.235041 -5.068331 -10.693769 -1.909442 0.000000 0.000000 0.000000 5.345866 1.846784 -39.590830 -3.153256 2.140968 0.313337 -0.555698 -4.477924 9.391466 0.000000 0.000000 0.000000
